<svg width="90" height="100" viewBox="0 0 90 100" fill="none" xmlns="http://www.w3.org/2000/svg">
<path d="M44.8568 92.7463L18.4415 72.0905C16.8366 70.6496 16.5332 68.2695 17.7262 66.4807C18.9192 64.6919 21.2536 64.027 23.2282 64.9136L33.8652 73.1408C34.8849 73.9658 36.3071 74.1042 37.4703 73.4916C38.6335 72.8791 39.3095 71.6358 39.1837 70.3401L30.7174 38.4705C30.1473 36.9545 30.4604 35.2523 31.5337 34.0309C32.607 32.8096 34.2698 32.2637 35.8701 32.6073C37.4704 32.9509 38.7534 34.1292 39.2162 35.6804L53.3664 85.3943C53.6939 87.6258 52.8541 89.8693 51.1355 91.3541C49.4169 92.8389 47.0534 93.363 44.8568 92.7463ZM64.232 76.7491L75.8241 45.5091C76.4299 43.4526 75.4291 41.2666 73.4654 40.3569C63.7298 35.4888 58.8621 33.0547 58.8621 33.0547C56.9761 32.889 55.2044 33.9683 54.5083 35.7069C53.8122 37.4456 54.3574 39.4292 55.8483 40.5818L66.3373 46.1214L63.2291 54.362C62.7962 55.5915 61.6568 56.4432 60.3408 56.5211C59.0249 56.5989 57.7907 55.8876 57.2122 54.7179L41.4155 3.57025C41.0994 1.98358 39.9317 0.693621 38.3702 0.206016C36.8087 -0.281588 35.1021 0.110885 33.9195 1.22942C32.7368 2.34798 32.2664 4.01462 32.6927 5.57596L53.0859 74.8707C53.9875 76.9424 55.8908 78.422 58.1418 78.8013C60.3929 79.1807 62.6854 78.4081 64.232 76.7491Z" fill="#9411FF"/>
<path fill-rule="evenodd" clip-rule="evenodd" d="M45.5415 10C70.1444 10.2906 90 30.3229 90 54.9966C90 79.8513 69.8528 100 45 100C20.1472 100 0 79.8513 0 54.9966C0 34.8171 13.2806 17.7403 31.5776 12.0296L33.2201 17.6821C17.3709 22.6812 5.87858 37.4977 5.87858 55C5.87858 75.3104 21.3539 92.0043 41.1553 93.9362L42.8449 95.2744C43.1145 95.4879 43.3813 95.6246 43.712 95.7186C46.705 96.5697 49.9345 95.8445 52.2762 93.7953C52.4376 93.6541 52.5933 93.5077 52.7433 93.3566C70.6403 89.7627 84.1214 73.9566 84.1214 55C84.1214 34.1833 67.8645 17.1665 47.3552 15.9482L45.5415 10Z" fill="white"/>
</svg>
