<svg id="visual" viewBox="0 0 960 540" width="960" height="540" xmlns="http://www.w3.org/2000/svg" xmlns:xlink="http://www.w3.org/1999/xlink" version="1.1"><rect x="0" y="0" width="960" height="540" fill="#110917"></rect><path d="M0 342L13.3 367C26.7 392 53.3 442 80 454.2C106.7 466.3 133.3 440.7 160 425.8C186.7 411 213.3 407 240 411.5C266.7 416 293.3 429 320 429.2C346.7 429.3 373.3 416.7 400 400.8C426.7 385 453.3 366 480 371.8C506.7 377.7 533.3 408.3 560 438C586.7 467.7 613.3 496.3 640 486.5C666.7 476.7 693.3 428.3 720 401.8C746.7 375.3 773.3 370.7 800 394.5C826.7 418.3 853.3 470.7 880 470.5C906.7 470.3 933.3 417.7 946.7 391.3L960 365L960 541L946.7 541C933.3 541 906.7 541 880 541C853.3 541 826.7 541 800 541C773.3 541 746.7 541 720 541C693.3 541 666.7 541 640 541C613.3 541 586.7 541 560 541C533.3 541 506.7 541 480 541C453.3 541 426.7 541 400 541C373.3 541 346.7 541 320 541C293.3 541 266.7 541 240 541C213.3 541 186.7 541 160 541C133.3 541 106.7 541 80 541C53.3 541 26.7 541 13.3 541L0 541Z" fill="#fff" stroke-linecap="round" stroke-linejoin="miter"></path></svg>