
<svg id="visual" viewBox="0 0 960 540" width="960" height="540" xmlns="http://www.w3.org/2000/svg" xmlns:xlink="http://www.w3.org/1999/xlink" version="1.1"><path d="M0 253L10.7 267.3C21.3 281.7 42.7 310.3 64 326.5C85.3 342.7 106.7 346.3 128 345.8C149.3 345.3 170.7 340.7 192 324.7C213.3 308.7 234.7 281.3 256 281C277.3 280.7 298.7 307.3 320 323.8C341.3 340.3 362.7 346.7 384 341.5C405.3 336.3 426.7 319.7 448 331C469.3 342.3 490.7 381.7 512 391.5C533.3 401.3 554.7 381.7 576 368.3C597.3 355 618.7 348 640 324.3C661.3 300.7 682.7 260.3 704 250.2C725.3 240 746.7 260 768 286.7C789.3 313.3 810.7 346.7 832 338C853.3 329.3 874.7 278.7 896 255.8C917.3 233 938.7 238 949.3 240.5L960 243L960 541L949.3 541C938.7 541 917.3 541 896 541C874.7 541 853.3 541 832 541C810.7 541 789.3 541 768 541C746.7 541 725.3 541 704 541C682.7 541 661.3 541 640 541C618.7 541 597.3 541 576 541C554.7 541 533.3 541 512 541C490.7 541 469.3 541 448 541C426.7 541 405.3 541 384 541C362.7 541 341.3 541 320 541C298.7 541 277.3 541 256 541C234.7 541 213.3 541 192 541C170.7 541 149.3 541 128 541C106.7 541 85.3 541 64 541C42.7 541 21.3 541 10.7 541L0 541Z" fill="#ffffff" stroke-linecap="round" stroke-linejoin="miter"></path></svg>